<?xml version="1.0" encoding="UTF-8" standalone="no"?>
<!-- Created with Inkscape (http://www.inkscape.org/) -->

<svg
   width="210mm"
   height="297mm"
   viewBox="0 0 210 297"
   version="1.1"
   id="svg5"
   inkscape:version="1.1.2 (b8e25be833, 2022-02-05)"
   sodipodi:docname="Logo_D3_ofc.svg"
   xmlns:inkscape="http://www.inkscape.org/namespaces/inkscape"
   xmlns:sodipodi="http://sodipodi.sourceforge.net/DTD/sodipodi-0.dtd"
   xmlns="http://www.w3.org/2000/svg"
   xmlns:svg="http://www.w3.org/2000/svg">
  <sodipodi:namedview
     id="namedview7"
     pagecolor="#ffffff"
     bordercolor="#666666"
     borderopacity="1.0"
     inkscape:pageshadow="2"
     inkscape:pageopacity="0.0"
     inkscape:pagecheckerboard="0"
     inkscape:document-units="mm"
     showgrid="false"
     inkscape:zoom="0.31723122"
     inkscape:cx="1093.8394"
     inkscape:cy="342.02183"
     inkscape:window-width="1366"
     inkscape:window-height="706"
     inkscape:window-x="-8"
     inkscape:window-y="-8"
     inkscape:window-maximized="1"
     inkscape:current-layer="layer1" />
  <defs
     id="defs2" />
  <g
     inkscape:label="Camada 1"
     inkscape:groupmode="layer"
     id="layer1">
    <a
       id="a3815"
       transform="translate(-258.55221,77.565664)">
      <g
         id="g3800">
        <g
           id="g2785"
           transform="translate(267.72665,-79.233743)">
          <path
             style="fill:#ffffff;stroke-width:0.264583"
             d="m 108.98837,152.6294 c 10.79269,-5.84469 17.95962,-10.9648 24.4329,-17.45505 6.40384,-6.42062 11.19613,-13.90092 13.55106,-21.15185 1.0216,-3.14558 1.83266,-6.99655 1.70897,-8.11441 l -0.084,-0.75962 -30.55938,14.76659 c -16.80765,8.12162 -30.664298,14.80188 -30.792539,14.84503 -0.128241,0.0431 0.685784,2.29829 1.808943,5.01143 2.030902,4.90591 2.049608,4.93812 3.408167,5.86808 0.773229,0.5293 1.990789,1.06731 2.805634,1.23976 1.253884,0.26536 1.380778,0.34766 0.983729,0.63799 -0.402297,0.29416 -0.167339,0.50498 2.000006,1.79453 3.30234,1.96485 7.93167,4.41225 8.3553,4.4172 0.18875,0.002 1.26031,-0.49265 2.38125,-1.09968 z M 77.457267,128.06851 c 0.05465,0 0.09937,-0.11985 0.09937,-0.26633 0,-0.29755 -3.624575,-10.20308 -3.968811,-10.84629 -0.120605,-0.22535 -1.140259,-0.68069 -2.265897,-1.01186 -1.125638,-0.33116 -1.939489,-0.69595 -1.808557,-0.81064 0.288263,-0.2525 13.642504,-4.30801 13.769036,-4.18148 0.04905,0.0491 -0.509471,0.93888 -1.24115,1.9774 l -1.330322,1.88822 1.654953,5.04438 c 0.911873,2.77944 1.777812,4.99857 1.928579,4.94235 0.150495,-0.0561 14.782047,-4.96114 32.514552,-10.90005 l 32.24094,-10.79801 -0.10595,-1.6639 c -0.0583,-0.91515 -0.17416,-1.73211 -0.25753,-1.815475 -0.0834,-0.08336 -1.98301,0.09282 -4.22144,0.391535 -2.23842,0.2987 -6.12369,0.67982 -8.63393,0.84693 -9.95547,0.66273 -22.45315,-0.996757 -27.9416,-3.710189 l -2.07858,-1.027628 -1.28357,0.86378 c -1.28312,0.86347 -4.2387,1.965849 -6.72778,2.509334 -5.082408,1.109733 -13.410436,1.671513 -19.426733,1.310463 -3.861805,-0.23175 -5.775465,-0.41694 -12.55666,-1.215154 l -1.55399,-0.18292 0.140705,4.207454 c 0.08163,2.44091 0.326134,5.03226 0.582348,6.17195 1.341284,5.96624 4.193659,12.14122 8.153885,17.65198 l 1.357791,1.8894 1.430486,-0.63263 c 0.786767,-0.34794 1.475203,-0.63262 1.529855,-0.63262 z"
             id="path2799"
             sodipodi:nodetypes="sssscssssssscssssssssscssscssssscsssscssscss" />
          <path
             style="fill:#edc938;stroke-width:0.264583"
             d="m 106.45386,237.48793 c -0.20334,0.38808 -0.45803,0.60318 -0.566,0.47799 -0.10796,-0.12519 -3.74742,-6.35934 -8.087694,-13.85366 C 91.580333,213.37251 55.31745,150.94966 19.56559,89.439433 L 15.644131,82.692656 V 66.315124 49.937595 l 43.98698,0.17127 c 24.192839,0.0942 64.854409,0.24869 90.359049,0.34331 l 46.37208,0.172035 -0.0118,16.267777 -0.0118,16.267777 c -90.45078,154.806156 0,0 -89.88478,154.328166 z m 8.93819,-88.3826 c 17.79893,-10.79749 29.06472,-23.95465 32.51186,-37.97016 0.57568,-2.3406 1.13943,-5.85982 0.96642,-6.03283 -0.0897,-0.0897 -61.5055,29.47573 -61.76412,29.73309 -0.05924,0.059 0.786694,2.28121 1.879854,4.93836 1.904807,4.63001 2.041499,4.87251 3.282715,5.82397 0.875442,0.67108 1.793943,1.09669 2.83437,1.3134 1.308187,0.27248 1.473263,0.36883 1.099778,0.64193 -0.388467,0.28406 -0.310132,0.40297 0.6752,1.02499 1.190165,0.75131 6.834023,3.92729 8.592043,4.83501 l 1.05834,0.54645 3.175,-1.6647 c 1.74625,-0.91559 4.30609,-2.35087 5.68854,-3.18951 z M 81.044722,136.21326 c -0.189854,-0.18985 -0.313089,-0.20547 -0.313089,-0.0397 0,0.15038 0.07937,0.35278 0.176389,0.4498 0.09701,0.097 0.237903,0.11487 0.31309,0.0397 0.07519,-0.0752 -0.0042,-0.27759 -0.17639,-0.44979 z m -4.756761,-7.59006 1.494343,-0.63594 -0.880706,-2.40677 c -0.484388,-1.32373 -1.430475,-3.89506 -2.102413,-5.71407 L 73.577476,116.55913 71.46173,115.924 c -1.163661,-0.34932 -2.068533,-0.68234 -2.01083,-0.74004 0.0577,-0.0577 3.029593,-0.99349 6.604196,-2.07953 3.574603,-1.08603 6.705232,-2.05364 6.956954,-2.15023 0.277217,-0.10638 -0.09394,0.61442 -0.941311,1.82807 l -1.398987,2.00371 1.62509,5.05376 c 0.893799,2.77957 1.687279,5.05377 1.763291,5.05377 0.109903,0 51.006107,-17.03526 62.233067,-20.82978 l 2.72302,-0.92033 -0.0772,-1.89109 c -0.0614,-1.503647 -0.1585,-1.878648 -0.47406,-1.830336 -8.23995,1.261536 -18.71157,1.740656 -25.06141,1.146676 -6.8412,-0.639948 -12.35829,-1.892422 -15.75858,-3.577474 l -1.79394,-0.889008 -1.51335,0.911296 c -2.75,1.65598 -6.944117,2.722682 -13.345928,3.394316 -6.655885,0.69829 -13.534846,0.51292 -22.881699,-0.616601 l -3.758028,-0.454138 -0.178639,1.429769 c -0.533421,4.26936 1.150829,12.29062 3.800271,18.09885 1.528692,3.35126 6.167676,10.67871 6.632089,10.47562 0.103322,-0.0452 0.860316,-0.36832 1.682205,-0.71808 z"
             id="path2795"
             sodipodi:nodetypes="cssscccssccccsssssssssscssssssssccsscssssscssscsssscssscssssc" />
          <path
             style="fill:#c6382f;stroke-width:0.264583"
             d="M 104.49132,235.47298 C 103.68546,234.09953 88.051437,207.19877 69.749043,175.69351 51.446649,144.18825 31.785702,110.3494 26.058047,100.49608 L 15.644131,82.580943 V 66.259366 49.937786 l 26.259897,0.171056 c 14.442943,0.09408 55.102787,0.248626 90.355212,0.343439 l 64.09531,0.17239 -0.002,15.901604 -0.002,15.901604 -25.49141,43.920831 c -14.02027,24.15646 -34.17092,58.87628 -44.77922,77.15515 -10.6083,18.27887 -19.47604,33.51151 -19.7061,33.85031 -0.41506,0.61125 -0.42958,0.59674 -1.88349,-1.88119 z m 44.32976,-79.26557 42.24181,-72.005896 V 69.984461 55.767409 l -19.51303,0.166502 c -10.73216,0.09157 -42.37302,0.227169 -70.31302,0.301315 -27.939999,0.07415 -57.378203,0.207749 -65.418229,0.296889 l -14.61823,0.162074 V 70.461635 84.229083 L 63.577552,156.6805 c 36.136054,61.7811 42.423158,72.38377 42.689448,71.99211 0.17176,-0.25262 19.32109,-32.86196 42.55408,-72.4652 z M 66.640218,149.65271 27.285798,82.372332 V 72.584556 62.79678 l 27.847397,-0.171829 c 15.316068,-0.09451 50.796695,-0.249759 78.845835,-0.345003 l 50.99844,-0.173173 V 72.223738 82.340702 L 145.9215,148.927 c -21.48077,36.62246 -39.25191,66.90575 -39.49141,67.2962 l -0.43546,0.7099 z m 42.128662,13.6097 c 1.15298,-0.57971 3.68042,-1.96386 5.61652,-3.0759 23.08914,-13.26165 37.39327,-29.77026 42.15736,-48.65446 1.04091,-4.12601 1.92071,-10.98021 1.40942,-10.98021 -0.13055,0 -1.28831,0.52781 -2.57278,1.17291 l -2.33542,1.17292 -0.15579,2.20759 c -0.59926,8.49159 -4.36638,17.78669 -10.58473,26.11705 -2.43329,3.25974 -10.08143,10.90172 -13.7636,13.75253 -5.60977,4.34318 -12.77932,8.83174 -19.43827,12.16952 l -2.71859,1.36269 -3.72013,-1.88762 c -2.04606,-1.03819 -5.565549,-3.00226 -7.821071,-4.36459 l -4.100949,-2.47697 -2.358774,0.96472 c -1.297329,0.53059 -2.358777,1.05473 -2.358777,1.16475 0,0.28857 7.252873,5.12278 10.980209,7.31857 3.384222,1.99367 9.125342,5.0788 9.464732,5.08611 0.11237,0.002 1.14766,-0.46991 2.30064,-1.04961 z m 2.65442,-11.82963 c 18.99914,-10.52436 31.24027,-23.44262 35.80355,-37.78407 0.86687,-2.7244 1.93564,-8.00993 1.72795,-8.5455 -0.0712,-0.18361 -27.67495,13.01773 -61.133805,29.23691 l -0.980432,0.47526 2.06243,4.97871 2.06243,4.97871 1.555594,1.03303 c 0.925472,0.61459 2.032648,1.10458 2.733312,1.20964 1.015119,0.15223 1.116259,0.22156 0.732549,0.50213 -0.387858,0.28361 -0.124671,0.51678 2.044219,1.81107 4.131933,2.46575 8.472953,4.67144 8.894283,4.51922 0.21828,-0.0789 2.24235,-1.16566 4.49792,-2.41511 z m -26.085708,-1.83966 c 0.488752,-1.18826 0.489834,-1.27194 0.03382,-2.61352 -0.41334,-1.21603 -0.767204,-1.6281 -2.886167,-3.36089 -1.328288,-1.08621 -3.346704,-2.84679 -4.485373,-3.91239 l -2.070309,-1.93746 -1.633858,0.52107 c -1.426522,0.45494 -1.644573,0.61262 -1.718283,1.24252 -0.0712,0.60849 0.301638,1.09736 2.38125,3.12233 2.781331,2.70825 9.205859,8.16841 9.609331,8.1669 0.145571,-5.3e-4 0.491889,-0.5534 0.769593,-1.22856 z m -4.00013,-13.05795 c -0.07611,-0.29104 -0.32154,-0.52916 -0.545404,-0.52916 -0.342352,0 -0.330935,0.0841 0.07187,0.52916 0.26339,0.29104 0.508821,0.52917 0.545405,0.52917 0.03658,0 0.0042,-0.23813 -0.07187,-0.52917 z m -11.86307,-4.80497 c 0.37065,-0.16888 0.673907,-0.38318 0.673907,-0.47623 0,-0.093 -0.53663,-0.90666 -1.192511,-1.80803 -4.02698,-5.53425 -7.499364,-13.16104 -8.698059,-19.10452 -0.894,-4.43272 -1.24021,-10.562422 -0.784402,-13.887912 l 0.172945,-1.261769 1.745284,0.16069 c 22.769897,2.096418 30.487714,1.74571 40.840234,-1.855836 l 3.46647,-1.205952 3.45783,1.089859 c 8.11901,2.558989 13.30712,3.320174 22.50784,3.302275 6.58486,-0.01281 8.33931,-0.131969 18.32239,-1.244426 l 2.97656,-0.331692 v 3.20766 c 0,1.764213 0.0665,3.274163 0.1478,3.355453 0.0813,0.0813 1.28867,-0.22629 2.68307,-0.6835 l 2.53527,-0.83131 -0.15495,-4.196707 c -0.0852,-2.308191 -0.19128,-4.227089 -0.23567,-4.264216 -0.0444,-0.03713 -1.39041,0.08769 -2.99114,0.277363 -1.60073,0.189675 -4.45685,0.528656 -6.34694,0.75329 -1.89008,0.224637 -6.01568,0.551805 -9.16799,0.727041 -11.04725,0.614116 -20.42628,-0.615985 -30.48275,-3.997944 l -3.13517,-1.054352 -2.81795,1.033949 C 91.936518,93.491442 83.880825,94.220049 66.311841,92.751373 61.655174,92.362102 57.130799,92.023192 56.257674,91.998242 l -1.5875,-0.04536 -0.07452,5.423959 c -0.124042,9.029319 1.141391,15.310979 4.701048,23.336179 1.21248,2.73352 4.133123,8.14924 4.394803,8.14924 0.07033,0 0.586942,-0.23421 1.14803,-0.52045 l 1.020159,-0.52045 1.383909,2.10795 c 0.761148,1.15937 1.422823,2.10795 1.47039,2.10795 0.04757,0 0.389745,-0.13818 0.760394,-0.30706 z m 6.797953,-3.03887 c 1.347145,-0.60456 1.536007,-0.77605 1.384112,-1.25677 -0.09674,-0.30617 -1.036346,-2.8784 -2.088012,-5.71605 l -1.912115,-5.15938 -2.084745,-0.68326 c -1.521081,-0.49852 -1.941671,-0.72738 -1.555578,-0.84647 5.363515,-1.65432 12.816981,-3.89423 12.958374,-3.89423 0.101722,0 -0.36128,0.76548 -1.028898,1.70106 -0.667618,0.93558 -1.21385,1.86088 -1.21385,2.05621 0,0.19534 0.711919,2.5655 1.582041,5.26703 l 1.582042,4.91186 27.191394,-9.11084 c 14.95527,-5.01096 29.57265,-9.91269 32.48307,-10.89273 l 5.29166,-1.7819 0.0777,-2.05203 0.0777,-2.052028 -0.73916,0.155434 c -2.8061,0.590093 -9.78897,1.261164 -14.52699,1.396084 -10.73979,0.30583 -20.50854,-1.115498 -25.97737,-3.779633 l -1.92978,-0.940096 -1.24522,0.795009 c -6.113347,3.90309 -21.845186,5.00213 -38.410829,2.683412 -1.267439,-0.177405 -1.769517,-0.156805 -1.935273,0.07941 -0.1231,0.175429 -0.16246,1.985828 -0.08746,4.023128 0.25943,7.04734 2.480496,13.86817 6.765769,20.77745 1.429089,2.30416 3.389712,5.01942 3.624409,5.01942 0.08635,0 0.859009,-0.31504 1.717013,-0.70009 z"
             id="path2791" />
          <path
             style="fill:#b03a3c;stroke-width:0.264583"
             d="m 102.23324,156.39715 c -4.273332,-2.21214 -4.513431,-2.34887 -8.716869,-4.96405 l -2.693384,-1.6757 -1.407658,0.55468 c -0.77421,0.30508 -2.278647,0.97354 -3.343193,1.48547 -1.064548,0.51193 -1.991725,0.8746 -2.060395,0.80593 -0.06867,-0.0687 0.29631,-0.96405 0.811062,-1.98973 1.054579,-2.10132 1.087649,-2.38761 0.455509,-3.94328 -0.337762,-0.83122 -1.092814,-1.64118 -3.010437,-3.22933 -1.407779,-1.16591 -3.407638,-2.91983 -4.44413,-3.8976 l -1.884529,-1.77777 -1.638686,0.52372 -1.638689,0.52372 -0.07419,3.05335 -0.07419,3.05336 -2.174772,0.67798 c -1.196123,0.37289 -2.256832,0.59968 -2.35713,0.50398 -0.438489,-0.41839 -6.585183,-16.00123 -6.387458,-16.19322 0.120899,-0.11739 1.134423,-0.6285 2.252271,-1.1358 l 2.032453,-0.92236 1.374341,2.09337 c 0.755891,1.15137 1.413261,2.09339 1.460828,2.09339 0.262226,0 1.434301,-0.64008 1.434301,-0.78329 0,-0.093 -0.54438,-0.91731 -1.209736,-1.8317 -2.753654,-3.78433 -5.669706,-9.37773 -7.242281,-13.89172 -1.817841,-5.21802 -2.776709,-12.91034 -2.275379,-18.253756 l 0.195564,-2.084422 1.627896,0.162811 c 21.57007,2.157293 30.584056,1.744686 41.032571,-1.87823 l 3.42133,-1.186312 3.45783,1.077706 c 12.05701,3.757819 21.4187,4.31741 38.69345,2.312887 l 5.11334,-0.593341 v 3.217042 c 0,1.769375 0.0687,3.285765 0.15271,3.369755 0.16384,0.16383 4.17268,-1.12575 5.61391,-1.805898 0.4795,-0.226287 1.00041,-0.36857 1.15758,-0.31618 0.15717,0.05239 -0.23515,0.308743 -0.87182,0.569678 -0.63667,0.26093 -2.24059,0.99022 -3.56426,1.62064 l -2.40667,1.14622 -0.17853,2.32256 c -0.40953,5.32793 -2.09697,11.18516 -4.79362,16.63909 -5.75015,11.62959 -15.9864,21.85916 -30.75866,30.7386 -3.29281,1.97928 -10.62358,5.9241 -10.96454,5.90024 -0.0468,-0.003 -1.89886,-0.9449 -4.11574,-2.09249 z m 9.19006,-4.96437 c 18.99914,-10.52436 31.24027,-23.44262 35.80355,-37.78407 0.86687,-2.7244 1.93564,-8.00993 1.72795,-8.5455 -0.0712,-0.18361 -27.67495,13.01773 -61.133805,29.23691 l -0.980432,0.47526 2.06243,4.97871 2.06243,4.97871 1.555594,1.03303 c 0.925472,0.61459 2.032648,1.10458 2.733312,1.20964 1.015119,0.15223 1.116259,0.22156 0.732549,0.50213 -0.387858,0.28361 -0.124671,0.51678 2.044219,1.81107 4.131933,2.46575 8.472953,4.67144 8.894283,4.51922 0.21828,-0.0789 2.24235,-1.16566 4.49792,-2.41511 z M 81.337462,136.53517 c -0.07611,-0.29104 -0.32154,-0.52916 -0.545404,-0.52916 -0.342352,0 -0.330935,0.0841 0.07187,0.52916 0.26339,0.29104 0.508821,0.52917 0.545405,0.52917 0.03658,0 0.0042,-0.23813 -0.07187,-0.52917 z m -5.065117,-7.84384 c 1.347145,-0.60456 1.536007,-0.77605 1.384112,-1.25677 -0.09674,-0.30617 -1.036346,-2.8784 -2.088012,-5.71605 l -1.912115,-5.15938 -2.084745,-0.68326 c -1.521081,-0.49852 -1.941671,-0.72738 -1.555578,-0.84647 5.363515,-1.65432 12.816981,-3.89423 12.958374,-3.89423 0.101722,0 -0.36128,0.76548 -1.028898,1.70106 -0.667618,0.93558 -1.21385,1.86088 -1.21385,2.05621 0,0.19534 0.711919,2.5655 1.582041,5.26703 l 1.582042,4.91186 27.191394,-9.11084 c 14.95527,-5.01096 29.57265,-9.91269 32.48307,-10.89273 l 5.29166,-1.7819 0.0777,-2.05203 0.0777,-2.052028 -0.73916,0.155434 c -2.8061,0.590093 -9.78897,1.261164 -14.52699,1.396084 -10.73979,0.30583 -20.50854,-1.115498 -25.97737,-3.779633 l -1.92978,-0.940096 -1.24522,0.795009 c -6.113347,3.90309 -21.845186,5.00213 -38.410829,2.683412 -1.267439,-0.177405 -1.769517,-0.156805 -1.935273,0.07941 -0.1231,0.175429 -0.16246,1.985828 -0.08746,4.023128 0.25943,7.04734 2.480496,13.86817 6.765769,20.77745 1.429089,2.30416 3.389712,5.01942 3.624409,5.01942 0.08635,0 0.859009,-0.31504 1.717013,-0.70009 z M 190.73216,50.613714 c 1.05502,-0.05022 2.78143,-0.05022 3.83645,0 1.05503,0.05022 0.19183,0.09131 -1.91822,0.09131 -2.11006,0 -2.97326,-0.04109 -1.91823,-0.09131 z m -73.67272,-0.265541 c 1.42639,-0.04767 3.68857,-0.04746 5.02708,5.29e-4 1.33851,0.04792 0.17147,0.08692 -2.59343,0.08666 -2.76489,-2.54e-4 -3.86004,-0.03946 -2.43365,-0.08713 z M 34.098819,50.083169 c 2.073672,-0.0447 5.466953,-0.0447 7.540625,0 2.073672,0.0447 0.377031,0.08128 -3.770312,0.08128 -4.147344,0 -5.843985,-0.03658 -3.770313,-0.08128 z"
             id="path2789" />
          <path
             style="fill:#2c3e74;stroke-width:0.264583"
             d="m 84.171216,152.30255 c 0,-0.0592 0.357188,-0.90374 0.79375,-1.87675 0.436563,-0.97302 0.79375,-1.92684 0.79375,-2.1196 0,-0.19277 -1.012031,-2.91265 -2.248958,-6.04419 -1.236927,-3.13154 -2.248959,-5.82023 -2.248959,-5.97486 0,-0.39472 0.0505,-0.40763 -4.497916,1.15023 l -4.101042,1.40463 -0.07463,2.92872 -0.07464,2.92872 -2.131573,0.70988 c -1.177679,0.39221 -2.228173,0.60787 -2.347429,0.48192 -0.118721,-0.12537 -1.46944,-3.32358 -3.001597,-7.10712 -1.53216,-3.78354 -2.96445,-7.30302 -3.182866,-7.82105 l -0.397124,-0.94189 2.207284,-1.0947 2.207281,-1.0947 1.380485,2.10273 c 0.759264,1.15651 1.407612,2.10274 1.440775,2.10274 0.052,0 3.671903,-1.60614 7.879662,-3.49617 1.060085,-0.47617 1.232316,-0.65285 1.086446,-1.11454 -0.09535,-0.30177 -1.033804,-2.87039 -2.08547,-5.70804 l -1.912115,-5.15938 -2.084745,-0.68326 c -1.521081,-0.49852 -1.941671,-0.72738 -1.555578,-0.84647 5.363515,-1.65432 12.816981,-3.89423 12.958374,-3.89423 0.101722,0 -0.36128,0.76548 -1.028898,1.70106 -0.667618,0.93558 -1.21385,1.86088 -1.21385,2.05621 0,0.19534 0.716711,2.58038 1.592694,5.3001 l 1.592693,4.94493 4.169683,-1.43245 c 8.207558,-2.81962 70.535467,-23.66732 70.584167,-23.60929 0.0273,0.0326 -2.46616,1.26974 -5.54112,2.74925 -9.91393,4.77007 -66.178829,31.90738 -66.227412,31.94236 -0.04297,0.0309 1.749848,4.42843 3.853908,9.45301 l 0.844473,2.01664 2.372675,0.48166 c 1.30497,0.26492 2.282473,0.57106 2.172226,0.68031 -0.188843,0.18714 -11.599346,4.99121 -11.854992,4.99121 -0.06567,0 -0.119412,-0.0484 -0.119412,-0.10762 z"
             id="path2787" />
        </g>
      </g>
    </a>
    <g
       id="g2084"
       style="display:inline" />
  </g>
</svg>
